<svg xmlns="http://www.w3.org/2000/svg" viewBox="0 0 96 96">
  <defs>
    <linearGradient id="rrArrow" x1="0" y1="1" x2="1" y2="0">
      <stop offset="0" stop-color="#3f6df6"/>
      <stop offset="1" stop-color="#7c58f6"/>
    </linearGradient>
  </defs>
  <rect width="96" height="96" rx="22" fill="#16181d"/>
  <path fill="#f5f4ef" fill-rule="evenodd" d="M30 20h29c12 0 20 6.8 20 17 0 8.6-5.2 14.3-13.6 16l16 23H66.2L51.5 54.6h-8.9V76H30V20Zm12.6 11.4v12.3h15.2c5.3 0 8.5-2.3 8.5-6.2 0-3.9-3.2-6.1-8.5-6.1H42.6Z"/>
  <path fill="url(#rrArrow)" d="M23.45 73.45 52.45 44.45 50.05 42.05 66.5 36.5 59.95 51.95 57.55 49.55 28.55 78.55Z"/>
</svg>
